<svg xmlns="http://www.w3.org/2000/svg" xmlns:xlink="http://www.w3.org/1999/xlink" viewBox="0,0,256,256" width="80px" height="80px" fill-rule="nonzero"><g fill="#f49224" fill-rule="nonzero" stroke="none" stroke-width="1" stroke-linecap="butt" stroke-linejoin="miter" stroke-miterlimit="10" stroke-dasharray="" stroke-dashoffset="0" font-family="none" font-weight="none" font-size="none" text-anchor="none" style="mix-blend-mode: normal"><g transform="scale(3.2,3.2)"><path d="M40,49.007l-24.286,24.286l-9.007,-9.007l24.286,-24.286l-24.286,-24.286l9.007,-9.007l24.286,24.286l24.286,-24.286l9.007,9.007l-24.286,24.286l24.286,24.286l-9.007,9.007z"></path><path d="M15.714,7.414l23.578,23.578l0.708,0.708l0.707,-0.707l23.579,-23.579l8.3,8.3l-23.579,23.579l-0.707,0.707l0.707,0.707l23.578,23.579l-8.3,8.3l-23.578,-23.579l-0.707,-0.707l-0.707,0.707l-23.579,23.579l-8.3,-8.3l23.579,-23.579l0.707,-0.707l-0.707,-0.707l-23.579,-23.579l8.3,-8.3M64.286,6l-24.286,24.286l-24.286,-24.286l-9.714,9.714l24.286,24.286l-24.286,24.286l9.714,9.714l24.286,-24.286l24.286,24.286l9.714,-9.714l-24.286,-24.286l24.286,-24.286l-9.714,-9.714z"></path></g></g></svg>